<svg width="25" height="25" viewBox="0 0 25 25" fill="none" xmlns="http://www.w3.org/2000/svg">
<path d="M18.674 9.07143C18.8352 8.67371 18.9286 8.24086 18.9286 7.78571C18.9286 5.89228 17.3934 4.35714 15.5 4.35714C15.2566 4.35714 15.0192 4.38457 14.7903 4.43257C14.1637 3.61057 13.1849 3.07143 12.0714 3.07143C10.4489 3.07143 9.09716 4.202 8.74144 5.71571C8.57173 5.67286 8.39773 5.64285 8.2143 5.64285C7.03058 5.64285 6.07144 6.602 6.07144 7.78571C6.07144 8.27 6.23858 8.71228 6.50944 9.07143" stroke="#602D08" stroke-width="2.05714" stroke-miterlimit="10"/>
<path d="M20.2143 9.07143L4.78571 9.07143L4.78571 12.5L20.2143 12.5V9.07143Z" stroke="#602D08" stroke-width="2.05714" stroke-miterlimit="10" stroke-linecap="square"/>
<path d="M7.15742 12.5C6.60628 13.82 6.29685 15.266 6.29685 16.7857C6.29685 17.6429 6.40485 18.4726 6.58914 19.2723C6.00628 20.0043 5.64285 20.9197 5.64285 21.9286L19.3571 21.9286C19.3571 20.9197 18.9937 20.0043 18.4109 19.2723C18.5951 18.4717 18.7031 17.642 18.7031 16.7857C18.7031 15.266 18.3937 13.82 17.8426 12.5" stroke="#602D08" stroke-width="2.05714" stroke-miterlimit="10"/>
</svg>
